<?xml version="1.0" standalone="no"?><!DOCTYPE svg PUBLIC "-//W3C//DTD SVG 1.1//EN" "http://www.w3.org/Graphics/SVG/1.1/DTD/svg11.dtd"><svg t="1684422087815" class="icon" viewBox="0 0 1024 1024" version="1.1" xmlns="http://www.w3.org/2000/svg" p-id="7690" xmlns:xlink="http://www.w3.org/1999/xlink" width="32" height="32"><path d="M951.107 363.085H230.538c-34.6 0-62.658 28.052-62.658 62.658L58.23 942.663h783.227c34.6 0 62.663-28.042 62.663-62.658l109.64-454.262c0-34.606-28.052-62.658-62.653-62.658z" p-id="7691" fill="#636D7E"></path><path d="M183.547 316.088h704.906v-61.557c0-34.607-28.063-62.659-62.664-62.659H449.843v-56.77c0-34.602-28.057-62.654-62.663-62.654H73.897c-34.601 0-62.659 28.058-62.659 62.653v744.92l109.655-501.254c0-34.621 28.048-62.679 62.654-62.679z" p-id="7692" fill="#636D7E"></path></svg>