<?xml version="1.0" encoding="UTF-8"?>
<svg width="12px" height="11px" viewBox="0 0 12 11" version="1.1" xmlns="http://www.w3.org/2000/svg" xmlns:xlink="http://www.w3.org/1999/xlink">
    <!-- Generator: Sketch 63.1 (92452) - https://sketch.com -->
    <title>文件夹开</title>
    <desc>Created with Sketch.</desc>
    <g id="页面-1" stroke="none" stroke-width="1" fill="none" fill-rule="evenodd">
        <g id="3-资源管理" transform="translate(-44.000000, -162.000000)">
            <g id="编组-4" transform="translate(24.000000, 120.000000)">
                <g id="编组-14" transform="translate(8.000000, 40.849765)">
                    <g id="文件夹开" transform="translate(12.000000, 1.150235)">
                        <g id="添加">
                            <rect id="矩形" x="0" y="0" width="12" height="12"></rect>
                        </g>
                        <g id="wenjianjiaKai" transform="translate(0.000000, 0.857143)" fill="red" fill-opacity="0.45">
                            <path d="M11.1157895,1.89473684 L6.31578947,1.89473684 C6.20013879,1.88794572 6.11145558,1.78940882 6.11684211,1.67368421 L6.11684211,0.631578947 C6.13298063,0.300670261 5.87919561,0.0186869128 5.54842105,0 L0.887368421,0 C0.727599372,0.00734534349 0.577375335,0.078175105 0.470055402,0.196760666 C0.36273547,0.315346226 0.307202933,0.471871796 0.315789474,0.631578947 L0.315789474,9.47368421 C0.299650952,9.8045929 0.553435966,10.0865762 0.884210526,10.1052632 L11.1157895,10.1052632 C11.446564,10.0865762 11.700349,9.8045929 11.6842105,9.47368421 L11.6842105,2.52631579 C11.700349,2.1954071 11.446564,1.91342375 11.1157895,1.89473684 Z M0.947368421,4.06927294 L0.947368421,0.852631579 C0.943925776,0.796809843 0.963062372,0.741946653 1.00047609,0.700375852 C1.03788981,0.658805051 1.09044108,0.634015063 1.14631579,0.631578947 L5.29263158,0.631578947 C5.34850629,0.634015063 5.40105755,0.658805051 5.43847128,0.700375852 C5.475885,0.741946653 5.49502159,0.796809843 5.49157895,0.852631579 L5.49157895,2.04947368 C5.48468802,2.16928676 5.52577286,2.28691489 5.60576098,2.37638309 C5.68574911,2.46585129 5.79806068,2.51979988 5.91789474,2.52631579 L10.9168421,2.52631579 C10.9727168,2.52875191 11.0252681,2.55354189 11.0626818,2.59511269 C11.1000955,2.6366835 11.1192321,2.69154668 11.1157895,2.74736842 L11.1157895,4.06927294 C11.1192321,4.12509467 11.1000955,4.17995786 11.0626818,4.22152866 C11.0252681,4.26309947 10.9727168,4.28788945 10.9168421,4.29032557 L1.15263158,4.29032557 C1.09594043,4.28869054 1.04227912,4.26436387 1.00368753,4.22280369 C0.965095936,4.18124351 0.944805383,4.12592971 0.947368421,4.06927294 Z" id="形状" fill-rule="nonzero"></path>
                        </g>
                    </g>
                </g>
            </g>
        </g>
    </g>
</svg>