<?xml version="1.0" encoding="UTF-8"?>
<svg width="14px" height="14px" viewBox="0 0 14 14" version="1.1" xmlns="http://www.w3.org/2000/svg" xmlns:xlink="http://www.w3.org/1999/xlink">
    <!-- Generator: Sketch 63.1 (92452) - https://sketch.com -->
    <title>文件夹关</title>
    <desc>Created with Sketch.</desc>
    <g id="文件夹关" stroke="none" stroke-width="1" fill="none" fill-rule="evenodd">
        <rect id="矩形" x="0" y="0" width="14" height="14"></rect>
        <g id="wenjianjiaGuan" transform="translate(0.370000, 1.000000)" fill="#000000" fill-opacity="0.45" fill-rule="nonzero">
            <path d="M12.5716592,2.20540541 L6.9883079,2.20540541 C6.85369467,2.19750079 6.75047061,2.08280739 6.75674033,1.94810811 L6.75674033,0.735135135 C6.77552499,0.349969349 6.48012838,0.0217508931 6.09511871,-7.88702437e-13 L0.66247006,-7.88702437e-13 C0.277460391,0.0217508931 -0.017936219,0.349969349 0.000848438113,0.735135135 L0.000848438113,11.027027 C-0.017936219,11.4121928 0.277460391,11.7404113 0.66247006,11.7621622 L12.5716592,11.7621622 C12.9566689,11.7404113 13.2520655,11.4121928 13.2332809,11.027027 L13.2332809,2.94054054 C13.2520655,2.55537475 12.9566689,2.2271563 12.5716592,2.20540541 Z M0.732307898,1.94810811 L0.732307898,0.992432432 C0.728300783,0.927457943 0.750575091,0.863599168 0.794123314,0.815212253 C0.837671537,0.766825338 0.898839314,0.737970686 0.963875465,0.735135135 L5.7937133,0.735135135 C5.85874945,0.737970686 5.91991723,0.766825338 5.96346545,0.815212253 C6.00701368,0.863599168 6.02928799,0.927457943 6.02528087,0.992432432 L6.02528087,1.94810811 C6.02928799,2.0130826 6.00701368,2.07694137 5.96346545,2.12532829 C5.91991723,2.1737152 5.85874945,2.20256985 5.7937133,2.20540541 L0.963875465,2.20540541 C0.898839314,2.20256985 0.837671537,2.1737152 0.794123314,2.12532829 C0.750575091,2.07694137 0.728300783,2.0130826 0.732307898,1.94810811 Z" id="形状"></path>
        </g>
    </g>
</svg>