<?xml version="1.0" standalone="no"?><!DOCTYPE svg PUBLIC "-//W3C//DTD SVG 1.1//EN" "http://www.w3.org/Graphics/SVG/1.1/DTD/svg11.dtd"><svg t="1682760583947" class="icon" viewBox="0 0 1024 1024" version="1.1" xmlns="http://www.w3.org/2000/svg" p-id="31246" xmlns:xlink="http://www.w3.org/1999/xlink" width="64" height="64"><path d="M43.2790625 511.99625a468.7171875 468.7171875 0 1 0 937.434375 0 468.7171875 468.7171875 0 1 0-937.434375 0z" fill="#FFFFFF" p-id="31247"></path><path d="M511.98875 43.2790625c258.883125 0 468.7246875 209.8490625 468.7246875 468.7171875 0 258.860625-209.840625 468.7246875-468.7246875 468.7246875" fill="#D8E5EA" p-id="31248"></path><path d="M511.99625 992C247.323125 992 32 776.669375 32 511.99625S247.323125 32 511.99625 32 992 247.323125 992 511.99625 776.669375 992 511.99625 992z m0-937.4409375c-252.22875 0-457.4371875 205.209375-457.4371875 457.4371875 0 252.23625 205.2009375 457.4446875 457.4296875 457.4446875 252.23625 0 457.4446875-205.209375 457.4446875-457.4446875 0.0075-252.22875-205.209375-457.4371875-457.4371875-457.4371875z" fill="#33363A" p-id="31249"></path><path d="M475.9325 870.048125c-0.384375 0-0.774375-0.015-1.1653125-0.0609375a359.2696875 359.2696875 0 0 1-73.6096875-15.4903125 11.2790625 11.2790625 0 1 1 6.94125-21.46875 336.62625 336.62625 0 0 0 68.9690625 14.5134375 11.2790625 11.2790625 0 0 1-1.1353125 22.5065625z m72.804375-0.0684375a11.2790625 11.2790625 0 0 1-1.1653125-22.498125 336.718125 336.718125 0 0 0 68.9315625-14.6484375 11.2875 11.2875 0 0 1 6.9853125 21.45375 359.2996875 359.2996875 0 0 1-73.56375 15.6328125 10.565625 10.565625 0 0 1-1.1878125 0.06zM338.0375 825.471875c-1.9096875 0-3.849375-0.4884375-5.625-1.51125a361.63125 361.63125 0 0 1-60.87-44.1703125 11.2790625 11.2790625 0 1 1 15.076875-16.775625 339.178125 339.178125 0 0 0 57.065625 41.401875 11.2790625 11.2790625 0 0 1-5.6475 21.0553125z m348.4875-0.3309375a11.2790625 11.2790625 0 0 1-5.6625-21.046875 339.0346875 339.0346875 0 0 0 56.975625-41.50125 11.2790625 11.2790625 0 0 1 15.106875 16.7465625 361.4353125 361.4353125 0 0 1-60.7734375 44.2678125 11.2040625 11.2040625 0 0 1-5.6475 1.53375zM230.253125 728.6271875a11.2546875 11.2546875 0 0 1-9.114375-4.6246875 359.690625 359.690625 0 0 1-37.7559375-65.02875 11.2790625 11.2790625 0 0 1 20.5884375-9.219375 337.0415625 337.0415625 0 0 0 35.379375 60.9384375 11.2790625 11.2790625 0 0 1-9.0984375 17.934375z m563.86875-0.5259375a11.2790625 11.2790625 0 0 1-9.1134375-17.911875 337.6809375 337.6809375 0 0 0 35.281875-61.0284375 11.2790625 11.2790625 0 1 1 20.6034375 9.1884375 360.2025 360.2025 0 0 1-37.6434375 65.1121875c-2.203125 3.03-5.6390625 4.6396875-9.1284375 4.6396875zM171.044375 596.403125a11.2790625 11.2790625 0 0 1-11.015625-8.9334375 361.69125 361.69125 0 0 1-7.9265625-74.7665625 11.2790625 11.2790625 0 0 1 11.265-11.2940625h0.015a11.2790625 11.2790625 0 0 1 11.278125 11.2640625c0.0384375 23.6109375 2.5425 47.1928125 7.430625 70.096875a11.2790625 11.2790625 0 0 1-11.0465625 13.633125z m682.0546875-0.661875a11.2790625 11.2790625 0 0 1-11.0540625-13.6171875c4.8421875-22.905 7.29375-46.4934375 7.29375-70.1128125v-1.34625a11.2790625 11.2790625 0 0 1 11.1890625-11.3690625c6.429375-0.3309375 11.3175 4.970625 11.37 11.1890625v1.60875c0 25.100625-2.6175 50.26125-7.783125 74.6925a11.2715625 11.2715625 0 0 1-11.015625 8.955z m-682.318125-144.225a11.2790625 11.2790625 0 0 1-11.053125-13.588125 358.306875 358.306875 0 0 1 23.0690625-71.600625 11.2875 11.2875 0 0 1 20.626875 9.1359375 335.68125 335.68125 0 0 0-21.61875 67.081875 11.2790625 11.2790625 0 0 1-11.0240625 8.971875z m681.99375-2.075625a11.2875 11.2875 0 0 1-11.015625-8.9025 335.281875 335.281875 0 0 0-22.0246875-66.939375 11.2790625 11.2790625 0 0 1 20.5659375-9.271875 358.0134375 358.0134375 0 0 1 23.5059375 71.443125 11.2790625 11.2790625 0 0 1-11.030625 13.670625zM229.4346875 319.02125a11.2790625 11.2790625 0 0 1-9.121875-17.896875 362.8265625 362.8265625 0 0 1 50.19375-55.9903125 11.2790625 11.2790625 0 1 1 15.144375 16.7240625 339.8840625 339.8840625 0 0 0-47.0653125 52.501875 11.2790625 11.2790625 0 0 1-9.1509375 4.66125z m563.8996875-1.68375c-3.466875 0-6.8953125-1.59375-9.099375-4.6096875a339.9590625 339.9590625 0 0 0-47.3803125-52.2159375 11.2790625 11.2790625 0 1 1 15.046875-16.8065625 362.8790625 362.8790625 0 0 1 50.52375 55.6828125 11.2790625 11.2790625 0 0 1-9.0909375 17.949375zM336.873125 221.7640625a11.2790625 11.2790625 0 0 1-5.685-21.0253125 358.83375 358.83375 0 0 1 68.615625-30.815625 11.2875 11.2875 0 0 1 7.03125 21.43875 336.328125 336.328125 0 0 0-64.291875 28.875 11.2715625 11.2715625 0 0 1-5.67 1.5271875z m348.440625-1.0378125a11.2040625 11.2040625 0 0 1-5.6090625-1.50375 336.425625 336.425625 0 0 0-64.4653125-28.4925 11.2790625 11.2790625 0 0 1 6.89625-21.4828125 358.7353125 358.7353125 0 0 1 68.803125 30.40125 11.2875 11.2875 0 0 1-5.625 21.0778125zM474.51875 176.6309375a11.2790625 11.2790625 0 0 1-1.18125-22.498125 367.57875 367.57875 0 0 1 75.159375-0.225 11.2790625 11.2790625 0 0 1 10.0903125 12.354375 11.3015625 11.3015625 0 0 1-12.354375 10.09125 343.0575 343.0575 0 0 0-70.50375 0.21 10.985625 10.985625 0 0 1-1.2103125 0.0675z m1.903125 596.1215625c-0.526875 0-1.06125-0.0375-1.5946875-0.1125a261.478125 261.478125 0 0 1-71.9175-20.9953125 11.2790625 11.2790625 0 0 1 9.361875-20.5209375 238.8590625 238.8590625 0 0 0 65.7140625 19.1821875 11.2790625 11.2790625 0 0 1-1.5646875 22.4465625z m71.653125-0.075a11.2790625 11.2790625 0 0 1-1.58625-22.4465625 239.325 239.325 0 0 0 65.668125-19.3096875 11.2790625 11.2790625 0 0 1 9.391875 20.505 261.8315625 261.8315625 0 0 1-71.8640625 21.1303125 9.7228125 9.7228125 0 0 1-1.6096875 0.12z m-200.8171875-58.73625c-2.6165625 0-5.240625-0.901875-7.36875-2.7440625a264.328125 264.328125 0 0 1-49.1484375-56.5021875 11.2790625 11.2790625 0 1 1 18.9496875-12.241875 241.8065625 241.8065625 0 0 0 44.95125 51.6815625 11.2790625 11.2790625 0 0 1-7.38375 19.8065625z m329.8528125-0.3234375a11.2790625 11.2790625 0 0 1-7.39875-19.798125 241.7690625 241.7690625 0 0 0 44.85375-51.765 11.2790625 11.2790625 0 0 1 18.9721875 12.204375 264.500625 264.500625 0 0 1-49.035 56.5996875 11.2125 11.2125 0 0 1-7.3921875 2.7590625zM270.2871875 594.711875a11.2790625 11.2790625 0 0 1-10.813125-8.090625 263.2753125 263.2753125 0 0 1-10.730625-74.1065625 11.2790625 11.2790625 0 0 1 11.265-11.2940625h0.015a11.2790625 11.2790625 0 0 1 11.2790625 11.2640625 240.67125 240.67125 0 0 0 9.80625 67.76625 11.2790625 11.2790625 0 0 1-10.8215625 14.4609375z m483.560625-0.474375a11.2790625 11.2790625 0 0 1-10.828125-14.4525 240.9271875 240.9271875 0 0 0 9.6703125-67.78125v-1.021875a11.2790625 11.2790625 0 1 1 22.5590625 0v0.901875c0 25.333125-3.564375 50.26875-10.580625 74.240625a11.2790625 11.2790625 0 0 1-10.820625 8.113125zM270.0246875 452.795a11.2790625 11.2790625 0 0 1-10.8365625-14.43 261.8615625 261.8615625 0 0 1 30.995625-68.203125 11.2790625 11.2790625 0 1 1 18.9946875 12.166875 239.3475 239.3475 0 0 0-28.325625 62.3296875 11.2875 11.2875 0 0 1-10.828125 8.1365625z m483.5296875-1.44375a11.2875 11.2875 0 0 1-10.813125-8.0690625 239.4 239.4 0 0 0-28.7015625-62.15625 11.2790625 11.2790625 0 0 1 18.92625-12.279375 261.9965625 261.9965625 0 0 1 31.4015625 68.00625 11.2790625 11.2790625 0 0 1-10.813125 14.4984375zM346.5134375 333.25625a11.2940625 11.2940625 0 0 1-7.4146875-19.7840625 263.221875 263.221875 0 0 1 62.8640625-40.7034375 11.2790625 11.2790625 0 1 1 9.436875 20.4909375 240.61125 240.61125 0 0 0-57.48 37.2215625 11.2565625 11.2565625 0 0 1-7.40625 2.775z m329.83125-0.9928125a11.259375 11.259375 0 0 1-7.3621875-2.7375 240.2953125 240.2953125 0 0 0-57.7059375-36.875625 11.2875 11.2875 0 0 1 9.316875-20.55 263.259375 263.259375 0 0 1 63.1125 40.3340625 11.2790625 11.2790625 0 0 1-7.3621875 19.8290625z m-200.953125-58.336875a11.2790625 11.2790625 0 0 1-1.6021875-22.438125 267.553125 267.553125 0 0 1 74.8575-0.225 11.2790625 11.2790625 0 0 1-3.1125 22.3471875 245.0175 245.0175 0 0 0-68.4965625 0.2034375c-0.556875 0.075-1.10625 0.1125-1.6471875 0.1125z" fill="#33363A" p-id="31250"></path><path d="M583.8228125 430.7778125L259.6625 228.2375a22.7915625 22.7915625 0 1 0-31.4165625 31.4240625L430.7778125 583.821875a22.8215625 22.8215625 0 0 0 19.3546875 10.715625l121.606875-0.015a22.7540625 22.7540625 0 0 0 22.7990625-22.7915625L594.5534375 450.125a22.875 22.875 0 0 0-10.730625-19.3471875z" fill="#D60909" p-id="31251"></path><path d="M228.2459375 259.655l202.531875 324.1603125a22.8215625 22.8215625 0 0 0 19.3546875 10.715625l121.606875-0.015a22.7503125 22.7503125 0 0 0 16.1296875-6.6703125L231.4484375 231.4484375a22.7915625 22.7915625 0 0 0-3.2025 28.2065625z" fill="#FF1A1A" p-id="31252"></path><path d="M435.8159375 589.6278125a23.4384375 23.4384375 0 0 0 4.36125 3.586875L764.3375 795.7540625a22.8065625 22.8065625 0 0 0 31.4165625-31.4240625l-202.546875-324.1603125a22.1371875 22.1371875 0 0 0-3.586875-4.36875L435.8159375 589.6278125z" fill="#AAC8D1" p-id="31253"></path><path d="M512.710625 512.718125l279.8409375 279.825a22.7840625 22.7840625 0 0 0 3.2025-28.205625l-202.546875-324.16875a22.1371875 22.1371875 0 0 0-3.586875-4.36875l-76.9096875 76.918125z" fill="#D8E5EA" p-id="31254"></path><path d="M805.319375 758.36l-202.546875-324.16875c-0.0525-0.0825-0.1275-0.1425-0.1809375-0.225 0.489375-3.399375-0.375-6.94875-2.9925-9.5653125-2.6165625-2.6165625-6.1659375-3.481875-9.556875-2.9925-0.0834375-0.0609375-0.15-0.1359375-0.234375-0.1875L265.6334375 218.665625a33.950625 33.950625 0 0 0-42.1621875 4.8121875 33.913125 33.913125 0 0 0-4.7896875 42.1546875l202.531875 324.16875c0.0525 0.09 0.135 0.1575 0.1959375 0.2409375-0.481875 3.3909375 0.3909375 6.9328125 3 9.549375a11.2434375 11.2434375 0 0 0 7.978125 3.3009375c0.534375 0 1.0453125-0.2325 1.57875-0.3084375 0.0909375 0.0609375 0.15 0.1359375 0.2409375 0.1959375l324.16875 202.546875a34.0865625 34.0865625 0 0 0 18.076875 5.210625 34.018125 34.018125 0 0 0 24.084375-10.0228125 33.913125 33.913125 0 0 0 4.783125-42.1546875zM237.8103125 253.6690625a11.46 11.46 0 0 1 1.6096875-14.2415625 11.505 11.505 0 0 1 14.2640625-1.63125l317.919375 198.643125-135.1640625 135.1640625-198.628125-317.934375z m546.7696875 530.8884375a11.4975 11.4975 0 0 1-14.2640625 1.63125L452.3890625 587.5465625l135.1565625-135.15 198.6440625 317.9203125a11.445 11.445 0 0 1-1.6096875 14.2415625z" fill="#33363A" p-id="31255"></path><path d="M445.59125 511.98875a66.3975 66.3975 0 1 0 132.795 0 66.3975 66.3975 0 1 0-132.795 0z" fill="#FFFFFF" p-id="31256"></path><path d="M445.60625 511.99625c0-36.658125 29.724375-66.405 66.3825-66.405s66.3825 29.746875 66.3825 66.405" fill="#D8E5EA" p-id="31257"></path><path d="M511.99625 589.65875c-42.8240625 0-77.6625-34.8384375-77.6625-77.6625 0-42.8390625 34.8384375-77.685 77.6625-77.685s77.6625 34.846875 77.6625 77.685c0 42.8240625-34.846875 77.6625-77.6625 77.6625z m0-132.7884375c-30.38625 0-55.1034375 24.73125-55.1034375 55.1259375 0 30.38625 24.7246875 55.1034375 55.1034375 55.1034375s55.1034375-24.7246875 55.1034375-55.1034375c0-30.39375-24.7246875-55.1259375-55.1034375-55.1259375z" fill="#33363A" p-id="31258"></path></svg>